<svg width="16" height="16" viewBox="0 0 16 16" fill="none" xmlns="http://www.w3.org/2000/svg">
<rect width="16" height="16" rx="3.2" fill="#80FF00"/>
<path d="M12.4786 3.19971C12.7374 3.1997 12.8899 3.49035 12.7432 3.70361L9.78815 7.99951L12.5655 10.8843C12.7619 11.0885 12.6174 11.4282 12.3341 11.4282H10.0596C9.71022 11.4282 9.37524 11.2864 9.13288 11.0347L8.29792 10.1675L6.87116 12.2427C6.63127 12.5913 6.23479 12.7993 5.81159 12.7993H3.52253C3.26407 12.7991 3.11078 12.5095 3.2569 12.2964L6.211 7.99951L3.43464 5.11572C3.2381 4.91154 3.38364 4.5708 3.66706 4.5708H5.94147C6.29087 4.57085 6.62493 4.71363 6.86725 4.96533L7.70124 5.83154L9.12897 3.75732C9.36874 3.40866 9.76542 3.19989 10.1885 3.19971H12.4786ZM4.65925 11.313C4.58243 11.203 4.41951 11.2028 4.34284 11.313L3.75788 12.1538C3.66925 12.2815 3.7607 12.4562 3.91608 12.4565H5.08698C5.2424 12.4562 5.33384 12.2815 5.24518 12.1538L4.65925 11.313ZM10.9141 3.54248C10.7586 3.54265 10.6673 3.71743 10.7559 3.84521L11.3409 4.68604C11.4176 4.79629 11.5805 4.79625 11.6573 4.68604L12.2432 3.84521C12.3317 3.71738 12.2396 3.54248 12.0841 3.54248H10.9141Z" fill="#1E1E1E"/>
</svg>
