<svg width="85" height="40" viewBox="0 0 85 40" fill="none" xmlns="http://www.w3.org/2000/svg">
<rect y="12" width="16" height="16" rx="3.2" fill="#80FF00"/>
<path d="M12.4786 15.1997C12.7374 15.1997 12.8899 15.4903 12.7432 15.7036L9.78815 19.9995L12.5655 22.8843C12.7619 23.0885 12.6174 23.4282 12.3341 23.4282H10.0596C9.71022 23.4282 9.37524 23.2864 9.13288 23.0347L8.29792 22.1675L6.87116 24.2427C6.63127 24.5913 6.23479 24.7993 5.81159 24.7993H3.52253C3.26407 24.7991 3.11078 24.5095 3.2569 24.2964L6.211 19.9995L3.43464 17.1157C3.2381 16.9115 3.38364 16.5708 3.66706 16.5708H5.94147C6.29087 16.5708 6.62493 16.7136 6.86725 16.9653L7.70124 17.8315L9.12897 15.7573C9.36874 15.4087 9.76542 15.1999 10.1885 15.1997H12.4786ZM4.65925 23.313C4.58243 23.203 4.41951 23.2028 4.34284 23.313L3.75788 24.1538C3.66925 24.2815 3.7607 24.4562 3.91608 24.4565H5.08698C5.2424 24.4562 5.33384 24.2815 5.24518 24.1538L4.65925 23.313ZM10.9141 15.5425C10.7586 15.5426 10.6673 15.7174 10.7559 15.8452L11.3409 16.686C11.4176 16.7963 11.5805 16.7963 11.6573 16.686L12.2432 15.8452C12.3317 15.7174 12.2396 15.5425 12.0841 15.5425H10.9141Z" fill="#1E1E1E"/>
<path d="M21.1009 27V12.4545H27.1662C28.2552 12.4545 29.1667 12.6084 29.9006 12.9162C30.6392 13.224 31.1932 13.6548 31.5625 14.2088C31.9366 14.7628 32.1236 15.4044 32.1236 16.1335C32.1236 16.6875 32.0076 17.1823 31.7756 17.6179C31.5436 18.0488 31.224 18.4062 30.8168 18.6903C30.4096 18.9744 29.9384 19.1733 29.4034 19.2869V19.429C29.9905 19.4574 30.5327 19.616 31.0298 19.9048C31.5317 20.1937 31.9342 20.5961 32.2372 21.1122C32.5402 21.6236 32.6918 22.2296 32.6918 22.9304C32.6918 23.7116 32.4929 24.41 32.0952 25.0256C31.6974 25.6364 31.1222 26.1193 30.3693 26.4744C29.6165 26.8248 28.7027 27 27.6278 27H21.1009ZM24.6165 24.1662H26.7898C27.5521 24.1662 28.1132 24.0218 28.473 23.733C28.8376 23.4441 29.0199 23.0417 29.0199 22.5256C29.0199 22.1515 28.9323 21.8295 28.7571 21.5597C28.5819 21.285 28.3333 21.0743 28.0114 20.9276C27.6894 20.776 27.3035 20.7003 26.8537 20.7003H24.6165V24.1662ZM24.6165 18.4347H26.5625C26.946 18.4347 27.2869 18.3707 27.5852 18.2429C27.8835 18.1151 28.1155 17.9304 28.2812 17.6889C28.4517 17.4474 28.5369 17.1562 28.5369 16.8153C28.5369 16.3277 28.3641 15.9441 28.0185 15.6648C27.6728 15.3854 27.2064 15.2457 26.6193 15.2457H24.6165V18.4347ZM33.1062 15.3097V12.4545H45.4003V15.3097H40.9898V27H37.5239V15.3097H33.1062ZM46.3173 27V12.4545H52.3826C53.4716 12.4545 54.3831 12.6084 55.117 12.9162C55.8556 13.224 56.4096 13.6548 56.7789 14.2088C57.153 14.7628 57.34 15.4044 57.34 16.1335C57.34 16.6875 57.224 17.1823 56.992 17.6179C56.76 18.0488 56.4404 18.4062 56.0332 18.6903C55.626 18.9744 55.1549 19.1733 54.6198 19.2869V19.429C55.2069 19.4574 55.7491 19.616 56.2462 19.9048C56.7481 20.1937 57.1506 20.5961 57.4536 21.1122C57.7567 21.6236 57.9082 22.2296 57.9082 22.9304C57.9082 23.7116 57.7093 24.41 57.3116 25.0256C56.9138 25.6364 56.3386 26.1193 55.5857 26.4744C54.8329 26.8248 53.9191 27 52.8442 27H46.3173ZM49.8329 24.1662H52.0062C52.7685 24.1662 53.3296 24.0218 53.6894 23.733C54.054 23.4441 54.2363 23.0417 54.2363 22.5256C54.2363 22.1515 54.1487 21.8295 53.9735 21.5597C53.7983 21.285 53.5497 21.0743 53.2278 20.9276C52.9058 20.776 52.5199 20.7003 52.0701 20.7003H49.8329V24.1662ZM49.8329 18.4347H51.7789C52.1624 18.4347 52.5033 18.3707 52.8016 18.2429C53.0999 18.1151 53.3319 17.9304 53.4977 17.6889C53.6681 17.4474 53.7533 17.1562 53.7533 16.8153C53.7533 16.3277 53.5805 15.9441 53.2349 15.6648C52.8892 15.3854 52.4228 15.2457 51.8357 15.2457H49.8329V18.4347ZM58.7985 27V12.4545H68.9406V15.3097H62.3141V18.2926H68.4221V21.1548H62.3141V24.1449H68.9406V27H58.7985ZM73.9005 12.4545L76.5567 17.0497H76.6704L79.355 12.4545H83.2897L78.9005 19.7273L83.4317 27H79.3977L76.6704 22.3551H76.5567L73.8295 27H69.8238L74.3337 19.7273L69.9374 12.4545H73.9005Z" fill="#80FF00"/>
</svg>
