<svg width="85" height="40" viewBox="0 0 85 40" fill="none" xmlns="http://www.w3.org/2000/svg">
<rect y="12" width="16" height="16" rx="3.2" fill="#80FF00"/>
<path d="M12.4781 15.2C12.7369 15.1999 12.8903 15.4906 12.7437 15.7039L9.78764 19.9998L12.565 22.8845C12.7615 23.0887 12.617 23.4285 12.3335 23.4285H10.0591C9.70988 23.4285 9.37567 23.2864 9.13334 23.0349L8.2974 22.1667L6.87064 24.2429C6.63083 24.5915 6.23513 24.7994 5.81205 24.7996H3.52201C3.26319 24.7996 3.11071 24.5099 3.25736 24.2966L6.21146 19.9998L3.4351 17.116C3.23852 16.9118 3.38311 16.571 3.66654 16.571H5.94096C6.29036 16.571 6.62438 16.7139 6.86674 16.9656L7.7017 17.8328L9.12943 15.7576C9.36922 15.4089 9.76485 15.2001 10.188 15.2H12.4781ZM4.65971 23.3132C4.58298 23.203 4.41905 23.203 4.34232 23.3132L3.75736 24.1541C3.66863 24.2818 3.76007 24.4565 3.91557 24.4568H5.08646C5.24203 24.4566 5.33347 24.2818 5.24467 24.1541L4.65971 23.3132ZM10.9136 15.5427C10.7581 15.5429 10.6669 15.7177 10.7554 15.8455L11.3404 16.6863C11.4171 16.7966 11.581 16.7966 11.6578 16.6863L12.2427 15.8455C12.3312 15.7177 12.2399 15.543 12.0845 15.5427H10.9136Z" fill="#1E1E1E"/>
<path d="M21.1009 27V12.4545H27.1662C28.2552 12.4545 29.1667 12.6084 29.9006 12.9162C30.6392 13.224 31.1932 13.6548 31.5625 14.2088C31.9366 14.7628 32.1236 15.4044 32.1236 16.1335C32.1236 16.6875 32.0076 17.1823 31.7756 17.6179C31.5436 18.0488 31.224 18.4062 30.8168 18.6903C30.4096 18.9744 29.9384 19.1733 29.4034 19.2869V19.429C29.9905 19.4574 30.5327 19.616 31.0298 19.9048C31.5317 20.1937 31.9342 20.5961 32.2372 21.1122C32.5402 21.6236 32.6918 22.2296 32.6918 22.9304C32.6918 23.7116 32.4929 24.41 32.0952 25.0256C31.6974 25.6364 31.1222 26.1193 30.3693 26.4744C29.6165 26.8248 28.7027 27 27.6278 27H21.1009ZM24.6165 24.1662H26.7898C27.5521 24.1662 28.1132 24.0218 28.473 23.733C28.8376 23.4441 29.0199 23.0417 29.0199 22.5256C29.0199 22.1515 28.9323 21.8295 28.7571 21.5597C28.5819 21.285 28.3333 21.0743 28.0114 20.9276C27.6894 20.776 27.3035 20.7003 26.8537 20.7003H24.6165V24.1662ZM24.6165 18.4347H26.5625C26.946 18.4347 27.2869 18.3707 27.5852 18.2429C27.8835 18.1151 28.1155 17.9304 28.2812 17.6889C28.4517 17.4474 28.5369 17.1562 28.5369 16.8153C28.5369 16.3277 28.3641 15.9441 28.0185 15.6648C27.6728 15.3854 27.2064 15.2457 26.6193 15.2457H24.6165V18.4347ZM33.1062 15.3097V12.4545H45.4003V15.3097H40.9898V27H37.5239V15.3097H33.1062ZM46.3173 27V12.4545H52.3826C53.4716 12.4545 54.3831 12.6084 55.117 12.9162C55.8556 13.224 56.4096 13.6548 56.7789 14.2088C57.153 14.7628 57.34 15.4044 57.34 16.1335C57.34 16.6875 57.224 17.1823 56.992 17.6179C56.76 18.0488 56.4404 18.4062 56.0332 18.6903C55.626 18.9744 55.1549 19.1733 54.6198 19.2869V19.429C55.2069 19.4574 55.7491 19.616 56.2462 19.9048C56.7481 20.1937 57.1506 20.5961 57.4536 21.1122C57.7567 21.6236 57.9082 22.2296 57.9082 22.9304C57.9082 23.7116 57.7093 24.41 57.3116 25.0256C56.9138 25.6364 56.3386 26.1193 55.5857 26.4744C54.8329 26.8248 53.9191 27 52.8442 27H46.3173ZM49.8329 24.1662H52.0062C52.7685 24.1662 53.3296 24.0218 53.6894 23.733C54.054 23.4441 54.2363 23.0417 54.2363 22.5256C54.2363 22.1515 54.1487 21.8295 53.9735 21.5597C53.7983 21.285 53.5497 21.0743 53.2278 20.9276C52.9058 20.776 52.5199 20.7003 52.0701 20.7003H49.8329V24.1662ZM49.8329 18.4347H51.7789C52.1624 18.4347 52.5033 18.3707 52.8016 18.2429C53.0999 18.1151 53.3319 17.9304 53.4977 17.6889C53.6681 17.4474 53.7533 17.1562 53.7533 16.8153C53.7533 16.3277 53.5805 15.9441 53.2349 15.6648C52.8892 15.3854 52.4228 15.2457 51.8357 15.2457H49.8329V18.4347ZM58.7985 27V12.4545H68.9406V15.3097H62.3141V18.2926H68.4221V21.1548H62.3141V24.1449H68.9406V27H58.7985ZM73.9005 12.4545L76.5567 17.0497H76.6704L79.355 12.4545H83.2897L78.9005 19.7273L83.4317 27H79.3977L76.6704 22.3551H76.5567L73.8295 27H69.8238L74.3337 19.7273L69.9374 12.4545H73.9005Z" fill="#80FF00"/>
</svg>
